C:/Program Files/Krita (x64)/bin/ffmpeg.exe -hide_banner -y -y -r 24 -start_number 0 -start_number_range 1 -i C:/Users/alex/Desktop/PIP-OS V3/frame%04d.png -i C:/Users/alex/Desktop/PIP-OS V3/KritaTempPalettegen_%06d.png -lavfi [0:v][1:v]paletteuse=dither=sierra2_4a:diff_mode=none -f gif -loop 0 -gifflags +transdiff C:/Users/alex/Desktop/PIP-OS V3/bootsequence.gif
=====================================================
Input #0, image2, from 'C:/Users/alex/Desktop/PIP-OS V3/frame%04d.png':
  Duration: 00:00:37.36, start: 0.000000, bitrate: N/A
  Stream #0:0: Video: png, rgba(pc), 1920x1080 [SAR 2834:2834 DAR 16:9], 25 fps, 25 tbr, 25 tbn, 25 tbc
Input #1, image2, from 'C:/Users/alex/Desktop/PIP-OS V3/KritaTempPalettegen_%06d.png':
  Duration: 00:00:00.04, start: 0.000000, bitrate: N/A
  Stream #1:0: Video: png, rgba(pc), 16x16 [SAR 1:1 DAR 1:1], 25 fps, 25 tbr, 25 tbn, 25 tbc
Stream mapping:
  Stream #0:0 (png) -> paletteuse:default
  Stream #1:0 (png) -> paletteuse:palette
  paletteuse -> Stream #0:0 (gif)
Press [q] to stop, [?] for help
[image2 @ 0000019dbbffd380] Thread message queue blocking; consider raising the thread_queue_size option (current value: 8)
Output #0, gif, to 'C:/Users/alex/Desktop/PIP-OS V3/bootsequence.gif':
  Metadata:
    encoder         : Lavf58.76.100
  Stream #0:0: Video: gif, pal8(pc, gbr/unknown/unknown, progressive), 1920x1080 [SAR 1:1 DAR 16:9], q=2-31, 200 kb/s, 24 fps, 100 tbn (default)
    Metadata:
      encoder         : Lavc58.134.100 gif
frame=    1 fps=0.0 q=-0.0 size=       0kB time=00:00:00.01 bitrate=   0.0kbits/s speed=0.355x    frame=   12 fps=0.0 q=-0.0 size=     106kB time=00:00:00.47 bitrate=1846.6kbits/s speed=0.862x    frame=   23 fps= 21 q=-0.0 size=     256kB time=00:00:00.93 bitrate=2255.0kbits/s speed=0.852x    frame=   35 fps= 21 q=-0.0 size=     512kB time=00:00:01.43 bitrate=2933.1kbits/s speed=0.878x    frame=   46 fps= 21 q=-0.0 size=    1280kB time=00:00:01.89 bitrate=5548.0kbits/s speed=0.881x    frame=   57 fps= 21 q=-0.0 size=    2304kB time=00:00:02.34 bitrate=8066.0kbits/s speed=0.873x    frame=   67 fps= 21 q=-0.0 size=    4352kB time=00:00:02.76 bitrate=12917.2kbits/s speed=0.86x    frame=   77 fps= 20 q=-0.0 size=    6912kB time=00:00:03.18 bitrate=17806.0kbits/s speed=0.845x    frame=   86 fps= 20 q=-0.0 size=   10752kB time=00:00:03.55 bitrate=24811.4kbits/s speed=0.825x    frame=   94 fps= 20 q=-0.0 size=   14336kB time=00:00:03.89 bitrate=30190.4kbits/s speed=0.809x    frame=  103 fps= 19 q=-0.0 size=   18432kB time=00:00:04.26 bitrate=35444.8kbits/s speed=0.793x    frame=  111 fps= 19 q=-0.0 size=   22528kB time=00:00:04.59 bitrate=40206.8kbits/s speed=0.78x    frame=  119 fps= 19 q=-0.0 size=   26112kB time=00:00:04.93 bitrate=43389.4kbits/s speed=0.772x    frame=  128 fps= 18 q=-0.0 size=   29440kB time=00:00:05.30 bitrate=45504.2kbits/s speed=0.764x    frame=  136 fps= 18 q=-0.0 size=   33536kB time=00:00:05.64 bitrate=48710.4kbits/s speed=0.757x    frame=  144 fps= 18 q=-0.0 size=   37632kB time=00:00:05.97 bitrate=51638.4kbits/s speed=0.746x    frame=  152 fps= 18 q=-0.0 size=   41472kB time=00:00:06.30 bitrate=53926.8kbits/s speed=0.737x    frame=  161 fps= 18 q=-0.0 size=   45056kB time=00:00:06.68 bitrate=55254.3kbits/s speed=0.734x    frame=  169 fps= 18 q=-0.0 size=   49152kB time=00:00:07.01 bitrate=57439.8kbits/s speed=0.729x    frame=  177 fps= 17 q=-0.0 size=   52736kB time=00:00:07.34 bitrate=58857.4kbits/s speed=0.725x    frame=  186 fps= 17 q=-0.0 size=   56064kB time=00:00:07.72 bitrate=59491.7kbits/s speed=0.723x    frame=  194 fps= 17 q=-0.0 size=   60928kB time=00:00:08.05 bitrate=62002.8kbits/s speed=0.719x    frame=  203 fps= 17 q=-0.0 size=   64512kB time=00:00:08.43 bitrate=62690.7kbits/s speed=0.718x    frame=  212 fps= 17 q=-0.0 size=   68352kB time=00:00:08.80 bitrate=63629.5kbits/s speed=0.716x    frame=  221 fps= 17 q=-0.0 size=   70912kB time=00:00:09.18 bitrate=63280.1kbits/s speed=0.716x    frame=  231 fps= 17 q=-0.0 size=   73216kB time=00:00:09.59 bitrate=62542.8kbits/s speed=0.717x    frame=  241 fps= 17 q=-0.0 size=   74496kB time=00:00:10.01 bitrate=60966.2kbits/s speed=0.72x    frame=  252 fps= 17 q=-0.0 size=   75008kB time=00:00:10.47 bitrate=58688.2kbits/s speed=0.726x    frame=  263 fps= 18 q=-0.0 size=   75008kB time=00:00:10.93 bitrate=56218.3kbits/s speed=0.732x    frame=  275 fps= 18 q=-0.0 size=   75008kB time=00:00:11.43 bitrate=53759.0kbits/s speed=0.739x    frame=  287 fps= 18 q=-0.0 size=   75008kB time=00:00:11.93 bitrate=51505.9kbits/s speed=0.747x    frame=  299 fps= 18 q=-0.0 size=   75008kB time=00:00:12.43 bitrate=49434.1kbits/s speed=0.754x    frame=  311 fps= 18 q=-0.0 size=   75008kB time=00:00:12.93 bitrate=47522.5kbits/s speed=0.76x    frame=  323 fps= 18 q=-0.0 size=   75008kB time=00:00:13.43 bitrate=45753.2kbits/s speed=0.766x    frame=  335 fps= 19 q=-0.0 size=   75008kB time=00:00:13.93 bitrate=44111.0kbits/s speed=0.772x    frame=  347 fps= 19 q=-0.0 size=   75008kB time=00:00:14.43 bitrate=42582.5kbits/s speed=0.778x    frame=  359 fps= 19 q=-0.0 size=   75264kB time=00:00:14.93 bitrate=41296.9kbits/s speed=0.783x    frame=  371 fps= 19 q=-0.0 size=   75264kB time=00:00:15.43 bitrate=39958.7kbits/s speed=0.787x    frame=  383 fps= 19 q=-0.0 size=   75264kB time=00:00:15.93 bitrate=38704.5kbits/s speed=0.791x    frame=  395 fps= 19 q=-0.0 size=   75264kB time=00:00:16.43 bitrate=37526.6kbits/s speed=0.796x    frame=  407 fps= 19 q=-0.0 size=   75264kB time=00:00:16.93 bitrate=36418.4kbits/s speed= 0.8x    frame=  419 fps= 19 q=-0.0 size=   75264kB time=00:00:17.43 bitrate=35373.6kbits/s speed=0.804x    frame=  431 fps= 19 q=-0.0 size=   75264kB time=00:00:17.93 bitrate=34387.2kbits/s speed=0.807x    frame=  443 fps= 19 q=-0.0 size=   75264kB time=00:00:18.43 bitrate=33454.3kbits/s speed=0.811x    frame=  455 fps= 20 q=-0.0 size=   75264kB time=00:00:18.93 bitrate=32570.7kbits/s speed=0.814x    frame=  467 fps= 20 q=-0.0 size=   75264kB time=00:00:19.43 bitrate=31732.5kbits/s speed=0.818x    frame=  479 fps= 20 q=-0.0 size=   75264kB time=00:00:19.93 bitrate=30936.4kbits/s speed=0.821x    frame=  491 fps= 20 q=-0.0 size=   75264kB time=00:00:20.43 bitrate=30179.3kbits/s speed=0.823x    frame=  503 fps= 20 q=-0.0 size=   75264kB time=00:00:20.93 bitrate=29458.3kbits/s speed=0.826x    frame=  515 fps= 20 q=-0.0 size=   75264kB time=00:00:21.43 bitrate=28771.0kbits/s speed=0.829x    frame=  527 fps= 20 q=-0.0 size=   75520kB time=00:00:21.93 bitrate=28210.7kbits/s speed=0.831x    frame=  539 fps= 20 q=-0.0 size=   75520kB time=00:00:22.43 bitrate=27581.8kbits/s speed=0.833x    frame=  551 fps= 20 q=-0.0 size=   75520kB time=00:00:22.93 bitrate=26980.4kbits/s speed=0.835x    frame=  563 fps= 20 q=-0.0 size=   75520kB time=00:00:23.43 bitrate=26404.6kbits/s speed=0.838x    frame=  575 fps= 20 q=-0.0 size=   75520kB time=00:00:23.93 bitrate=25852.9kbits/s speed=0.84x    frame=  587 fps= 20 q=-0.0 size=   75520kB time=00:00:24.43 bitrate=25323.8kbits/s speed=0.842x    frame=  599 fps= 20 q=-0.0 size=   75520kB time=00:00:24.93 bitrate=24815.9kbits/s speed=0.844x    frame=  610 fps= 20 q=-0.0 size=   75776kB time=00:00:25.39 bitrate=24448.9kbits/s speed=0.844x    frame=  621 fps= 20 q=-0.0 size=   76288kB time=00:00:25.84 bitrate=24185.4kbits/s speed=0.845x    frame=  633 fps= 20 q=-0.0 size=   76288kB time=00:00:26.34 bitrate=23726.3kbits/s speed=0.847x    frame=  645 fps= 20 q=-0.0 size=   76544kB time=00:00:26.84 bitrate=23362.5kbits/s speed=0.849x    frame=  657 fps= 20 q=-0.0 size=   76544kB time=00:00:27.34 bitrate=22935.2kbits/s speed=0.851x    frame=  669 fps= 20 q=-0.0 size=   76544kB time=00:00:27.84 bitrate=22523.3kbits/s speed=0.852x    frame=  681 fps= 21 q=-0.0 size=   76544kB time=00:00:28.34 bitrate=22125.9kbits/s speed=0.854x    frame=  693 fps= 21 q=-0.0 size=   76544kB time=00:00:28.84 bitrate=21742.3kbits/s speed=0.856x    frame=  705 fps= 21 q=-0.0 size=   76544kB time=00:00:29.34 bitrate=21371.8kbits/s speed=0.857x    frame=  717 fps= 21 q=-0.0 size=   76544kB time=00:00:29.84 bitrate=21013.7kbits/s speed=0.859x    frame=  729 fps= 21 q=-0.0 size=   76544kB time=00:00:30.34 bitrate=20667.4kbits/s speed=0.86x    frame=  741 fps= 21 q=-0.0 size=   76544kB time=00:00:30.84 bitrate=20332.3kbits/s speed=0.861x    frame=  753 fps= 21 q=-0.0 size=   76544kB time=00:00:31.34 bitrate=20007.9kbits/s speed=0.862x    frame=  765 fps= 21 q=-0.0 size=   76544kB time=00:00:31.84 bitrate=19693.7kbits/s speed=0.864x    frame=  777 fps= 21 q=-0.0 size=   76800kB time=00:00:32.34 bitrate=19454.1kbits/s speed=0.865x    frame=  789 fps= 21 q=-0.0 size=   76800kB time=00:00:32.84 bitrate=19157.9kbits/s speed=0.866x    frame=  801 fps= 21 q=-0.0 size=   76800kB time=00:00:33.34 bitrate=18870.6kbits/s speed=0.867x    frame=  813 fps= 21 q=-0.0 size=   76800kB time=00:00:33.84 bitrate=18591.8kbits/s speed=0.868x    frame=  825 fps= 21 q=-0.0 size=   76800kB time=00:00:34.34 bitrate=18321.1kbits/s speed=0.869x    frame=  837 fps= 21 q=-0.0 size=   76800kB time=00:00:34.84 bitrate=18058.1kbits/s speed=0.87x    frame=  849 fps= 21 q=-0.0 size=   76800kB time=00:00:35.34 bitrate=17802.6kbits/s speed=0.871x    frame=  861 fps= 21 q=-0.0 size=   77056kB time=00:00:35.84 bitrate=17612.8kbits/s speed=0.872x    frame=  873 fps= 21 q=-0.0 size=   77056kB time=00:00:36.34 bitrate=17370.5kbits/s speed=0.873x    frame=  885 fps= 21 q=-0.0 size=   77056kB time=00:00:36.84 bitrate=17134.7kbits/s speed=0.874x    frame=  897 fps= 21 q=-0.0 size=   77056kB time=00:00:37.34 bitrate=16905.3kbits/s speed=0.875x    frame=  909 fps= 21 q=-0.0 size=   77056kB time=00:00:37.84 bitrate=16681.9kbits/s speed=0.876x    frame=  921 fps= 21 q=-0.0 size=   77056kB time=00:00:38.34 bitrate=16464.3kbits/s speed=0.877x    frame=  933 fps= 21 q=-0.0 size=   77056kB time=00:00:38.84 bitrate=16252.4kbits/s speed=0.878x    frame=  934 fps= 21 q=-0.0 Lsize=   77214kB time=00:00:38.89 bitrate=16264.9kbits/s speed=0.878x    
video:77214kB audio:0kB subtitle:0kB other streams:0kB global headers:0kB muxing overhead: 0.000025%
